<svg width="139" height="30" viewBox="0 0 139 30" fill="none" xmlns="http://www.w3.org/2000/svg">
<path d="M0.3 20C0.54 20.02 0.92 20.03 1.44 20.03C2.04 20.03 2.5 19.89 2.82 19.61C3.16 19.31 3.33 18.78 3.33 18.02V2H6.63V17.78C6.63 21.3 5.05 23.06 1.89 23.06C1.19 23.06 0.66 23.04 0.3 23V20ZM16.7058 10.85V13.85H12.1758V20H17.8758V23H8.87578V2H17.8758V5H12.1758V10.85H16.7058ZM19.5007 7.04C19.5007 5.34 19.9107 4.04 20.7307 3.14C21.5507 2.22 22.7607 1.76 24.3607 1.76C25.9607 1.76 27.1707 2.22 27.9907 3.14C28.8107 4.04 29.2207 5.34 29.2207 7.04V7.7H26.1007V6.83C26.1007 6.11 25.9607 5.59 25.6807 5.27C25.4007 4.93 24.9907 4.76 24.4507 4.76C23.9107 4.76 23.5007 4.93 23.2207 5.27C22.9407 5.59 22.8007 6.11 22.8007 6.83C22.8007 7.71 23.0307 8.48 23.4907 9.14C23.9707 9.8 24.6807 10.55 25.6207 11.39C26.4007 12.11 27.0307 12.75 27.5107 13.31C27.9907 13.85 28.4007 14.51 28.7407 15.29C29.0807 16.07 29.2507 16.96 29.2507 17.96C29.2507 19.66 28.8307 20.97 27.9907 21.89C27.1507 22.79 25.9307 23.24 24.3307 23.24C22.7307 23.24 21.5107 22.79 20.6707 21.89C19.8307 20.97 19.4107 19.66 19.4107 17.96V16.67H22.5307V18.17C22.5307 19.53 23.1007 20.21 24.2407 20.21C25.3807 20.21 25.9507 19.53 25.9507 18.17C25.9507 17.29 25.7107 16.52 25.2307 15.86C24.7707 15.2 24.0707 14.45 23.1307 13.61C22.3507 12.89 21.7207 12.26 21.2407 11.72C20.7607 11.16 20.3507 10.49 20.0107 9.71C19.6707 8.93 19.5007 8.04 19.5007 7.04ZM30.7214 7.04C30.7214 5.34 31.1314 4.04 31.9514 3.14C32.7714 2.22 33.9814 1.76 35.5814 1.76C37.1814 1.76 38.3914 2.22 39.2114 3.14C40.0314 4.04 40.4414 5.34 40.4414 7.04V7.7H37.3214V6.83C37.3214 6.11 37.1814 5.59 36.9014 5.27C36.6214 4.93 36.2114 4.76 35.6714 4.76C35.1314 4.76 34.7214 4.93 34.4414 5.27C34.1614 5.59 34.0214 6.11 34.0214 6.83C34.0214 7.71 34.2514 8.48 34.7114 9.14C35.1914 9.8 35.9014 10.55 36.8414 11.39C37.6214 12.11 38.2514 12.75 38.7314 13.31C39.2114 13.85 39.6214 14.51 39.9614 15.29C40.3014 16.07 40.4714 16.96 40.4714 17.96C40.4714 19.66 40.0514 20.97 39.2114 21.89C38.3714 22.79 37.1514 23.24 35.5514 23.24C33.9514 23.24 32.7314 22.79 31.8914 21.89C31.0514 20.97 30.6314 19.66 30.6314 17.96V16.67H33.7514V18.17C33.7514 19.53 34.3214 20.21 35.4614 20.21C36.6014 20.21 37.1714 19.53 37.1714 18.17C37.1714 17.29 36.9314 16.52 36.4514 15.86C35.9914 15.2 35.2914 14.45 34.3514 13.61C33.5714 12.89 32.9414 12.26 32.4614 11.72C31.9814 11.16 31.5714 10.49 31.2314 9.71C30.8914 8.93 30.7214 8.04 30.7214 7.04ZM50.1921 10.85V13.85H45.6621V20H51.3621V23H42.3621V2H51.3621V5H45.6621V10.85H50.1921Z" fill="#1F1F1F"/>
<path d="M67.01 12.23H61.58V3.26H68.18V2H60.2V23H61.58V13.49H67.01V12.23ZM74.6581 2H70.2781V23H71.6581V13.61H73.8481C76.2481 13.61 77.7781 14.39 77.7781 17.18V20.48C77.7781 21.62 77.8681 22.37 78.2281 23H79.6681C79.2181 22.31 79.1581 21.35 79.1581 20.48V17.21C79.1581 14.93 78.2881 13.4 76.1281 12.92C78.1981 12.44 79.1581 11.03 79.1581 8.57V6.74C79.1581 3.77 77.8681 2 74.6581 2ZM73.8781 12.35H71.6581V3.26H74.6281C76.9081 3.26 77.7781 4.61 77.7781 6.86V8.84C77.7781 11.66 76.3381 12.35 73.8781 12.35ZM83.8604 18.35H90.4004L91.4504 23H92.8304L88.1504 1.97H86.1404L81.5504 23H82.8104L83.8604 18.35ZM84.0704 17.15L87.1004 3.56L90.1904 17.15H84.0704ZM99.3275 1.82C96.1175 1.82 94.7975 4.1 94.7975 7.13V17.87C94.7975 20.9 96.1175 23.18 99.3275 23.18C102.538 23.18 103.858 20.9 103.858 17.87V12.17H99.7475V13.43H102.538V17.96C102.538 20.21 101.668 21.89 99.3575 21.89C97.0475 21.89 96.1775 20.21 96.1775 17.96V7.04C96.1775 4.79 97.0475 3.08 99.3575 3.08C101.668 3.08 102.538 4.79 102.538 7.04V8.69H103.858V7.13C103.858 4.1 102.538 1.82 99.3275 1.82ZM108.148 18.35H114.688L115.738 23H117.118L112.438 1.97H110.428L105.838 23H107.098L108.148 18.35ZM108.358 17.15L111.388 3.56L114.478 17.15H108.358ZM119.204 23H127.184V21.74H120.584V2H119.204V23ZM136.363 11.72H130.633V3.26H137.533V2H129.253V23H137.533V21.74H130.633V12.98H136.363V11.72Z" fill="#1F1F1F"/>
</svg>
